<svg width="32" height="32" viewBox="0 0 32 32" fill="none" xmlns="http://www.w3.org/2000/svg">
<path d="M31.9122 11.4816C31.8118 11.1853 31.6268 10.9249 31.3799 10.7326C31.1331 10.5404 30.8353 10.4247 30.5234 10.4L21.4034 9.67672L17.4577 0.940205C17.3309 0.65994 17.1259 0.422193 16.8674 0.255441C16.6089 0.0886879 16.3078 0 16.0001 0C15.6925 0 15.3914 0.0886879 15.1329 0.255441C14.8744 0.422193 14.6694 0.65994 14.5425 0.940205L10.5937 9.67672L1.47369 10.4C1.16702 10.4242 0.87385 10.5364 0.629301 10.7231C0.384753 10.9097 0.199194 11.1629 0.0948496 11.4523C-0.00949454 11.7417 -0.0281988 12.0551 0.0409771 12.3549C0.110153 12.6546 0.264276 12.9281 0.484884 13.1425L7.22411 19.7125L4.8401 30.0363C4.76814 30.3487 4.79166 30.6755 4.90761 30.9743C5.02356 31.2732 5.2266 31.5303 5.49041 31.7124C5.75422 31.8945 6.06663 31.9932 6.38717 31.9956C6.7077 31.998 7.02158 31.9041 7.28811 31.726L16.0017 25.9209L24.7122 31.7292C24.9846 31.9117 25.3064 32.0061 25.6342 31.9997C25.9621 31.9932 26.28 31.8862 26.545 31.6931C26.81 31.5001 27.0092 31.2302 27.1159 30.9201C27.2225 30.6101 27.2312 30.2747 27.141 29.9595L24.213 19.7189L31.4706 13.1873C31.703 12.9781 31.869 12.7053 31.948 12.4027C32.0271 12.1001 32.0157 11.781 31.9154 11.4848L31.9122 11.4816Z" fill="#FFB647"/>
</svg>
